EMG
version=1
nRows=41
nColumns=17
inDegrees=no
endheader
time	_right_gast_med	_right_glut_max	_left_gast_med	_left_glut_max	_right_glut_med	_right_bic_fem	_right_rect_fem	_right_vast_lat	_right_vast_med	_right_tens_fasc_lat	_left_glut_med	_left_bic_fem	_left_rect_fem	_left_vast_lat	_left_vast_med	_left_tens_fasc_lat
      0.56000000	      0.02480798	     -0.00685333	      0.00664322	      0.01285793	     -0.01312076	      0.00606546	      0.00455294	     -0.02578776	      0.01132072	     -0.01645554	     -0.00254108	     -0.00637986	      0.01662799	      0.00288439	     -0.02974512	      0.03163552
      0.57000000	      0.09807035	     -0.00276421	     -0.00428533	      0.02115094	     -0.01126866	      0.00346125	      0.01219352	     -0.01799849	     -0.02368266	     -0.01582437	     -0.00757238	     -0.00715138	      0.02882256	     -0.00117047	     -0.08754856	      0.02662685
      0.58000000	      0.14676604	      0.00077407	     -0.00676791	      0.00333214	     -0.00919079	      0.00273369	      0.02331581	     -0.00840301	     -0.03835317	     -0.00608385	     -0.00770142	      0.00617462	      0.04407689	     -0.02224673	     -0.19159864	      0.01809511
      0.59000000	      0.00478842	     -0.00985331	      0.00676157	     -0.01689323	     -0.00572507	      0.00064347	      0.02730379	     -0.00604697	     -0.04859905	      0.00291488	     -0.00445442	      0.01558445	      0.03289482	     -0.04594009	     -0.24740836	      0.00036852
      0.60000000	     -0.15687391	     -0.03112797	      0.02212767	     -0.02714295	      0.00061363	      0.00018195	      0.01723301	     -0.00873872	     -0.05421947	      0.00786276	      0.00129775	      0.02353778	     -0.00477573	     -0.02670127	     -0.15203139	     -0.01538660
      0.61000000	      0.02170002	     -0.03685361	      0.02660969	     -0.02303182	      0.01114588	      0.00445654	      0.00237501	     -0.00919444	     -0.03709396	      0.01427300	      0.00872432	      0.03610708	     -0.02976073	      0.02972258	      0.04900480	     -0.01994706
      0.62000000	      0.60357696	     -0.01805575	      0.01880427	     -0.00272232	      0.02644846	      0.00889138	     -0.00263023	     -0.00619230	      0.00645595	      0.01989867	      0.00996227	      0.02282914	     -0.02240623	      0.07122833	      0.23126304	     -0.01808082
      0.63000000	      1.01234543	     -0.00170188	      0.00770339	      0.01667866	      0.03871360	      0.00995456	      0.00062816	     -0.00028643	      0.04746087	      0.02007350	      0.00765421	     -0.00943772	     -0.00485889	      0.08925420	      0.30791819	     -0.01296729
      0.64000000	      0.71021867	     -0.00981810	      0.00361312	      0.01691637	      0.03930026	      0.00956121	      0.00182407	      0.00818838	      0.06303813	      0.01749617	      0.01313813	     -0.01107684	      0.00243500	      0.08945915	      0.26654547	     -0.01142592
      0.65000000	      0.26374546	     -0.02930337	      0.00946099	      0.01092433	      0.03248146	      0.00932268	     -0.00321115	      0.01249699	      0.06155923	      0.01220668	      0.02039213	      0.01999790	     -0.00133160	      0.06376583	      0.17297360	     -0.02005578
      0.66000000	      0.03145550	     -0.03169327	      0.01740704	      0.01420658	      0.02316001	      0.00963303	     -0.00932386	      0.00909982	      0.05376397	      0.00039598	      0.02052798	      0.04792960	     -0.01084702	      0.02536629	      0.08880052	     -0.02612353
      0.67000000	     -0.84137464	     -0.01272637	      0.00769691	      0.01276763	      0.01553895	      0.00972286	     -0.01299926	      0.00337670	      0.04464706	     -0.01062445	      0.01839980	      0.03309718	     -0.01634214	      0.01686999	      0.01667910	     -0.01025162
      0.68000000	     -1.69348800	      0.00028124	     -0.01820335	      0.00291151	      0.01913564	      0.01037575	     -0.01350217	      0.00038382	      0.03704422	     -0.00790850	      0.01160458	     -0.02691967	     -0.00544043	      0.03332628	     -0.01285168	      0.01570361
      0.69000000	     -0.92765409	     -0.00270577	     -0.02000473	      0.01348635	      0.02831304	      0.01195564	     -0.00727438	      0.00128812	      0.04048401	      0.00225880	      0.00478422	     -0.06623238	      0.02097489	      0.00785714	      0.02002129	      0.02944343
      0.70000000	     -0.08531421	     -0.00127508	      0.01153084	      0.03570737	      0.02738924	      0.01213485	      0.00424481	      0.00187157	      0.07018124	      0.00806820	      0.02075350	     -0.04292602	      0.03148720	     -0.03396740	      0.04109089	      0.02571353
      0.71000000	     -0.51988435	      0.01195455	      0.03331691	      0.03298065	      0.01975960	      0.00940973	      0.01572002	      0.00006112	      0.10650579	      0.00835585	      0.04957462	      0.00269193	      0.01175484	     -0.03512079	      0.00188072	      0.00766516
      0.72000000	     -0.34550184	      0.02711795	      0.02406394	      0.01362708	      0.01968691	      0.00339910	      0.01975671	      0.00717016	      0.11121229	      0.00021248	      0.05746686	      0.01469651	      0.00247365	     -0.03600895	     -0.05522956	      0.00050808
      0.73000000	      0.70568240	      0.04213133	      0.00970790	     -0.00539011	      0.02487639	     -0.00210896	      0.01423771	      0.02429243	      0.09088879	     -0.01130147	      0.04465245	      0.00030652	      0.01735550	     -0.04538545	     -0.06827029	      0.01550916
      0.74000000	      0.94325608	      0.05324204	      0.01805259	     -0.02090891	      0.02349103	     -0.00429265	      0.00831286	      0.02709410	      0.07615787	     -0.00989489	      0.03011737	     -0.00590009	      0.02080135	     -0.01676757	     -0.00704957	      0.02855563
      0.75000000	      0.50455421	      0.03861859	      0.03411811	     -0.02883643	      0.01333495	     -0.00362327	      0.00769570	      0.01239700	      0.06383732	      0.01059033	      0.01759434	      0.00391574	     -0.00135500	      0.02883765	      0.05771375	      0.02698683
      0.76000000	      0.18209437	     -0.01450658	      0.02361058	     -0.02931577	      0.00103766	     -0.00138450	      0.00983588	      0.01007434	      0.00370948	      0.03284809	     -0.00014533	      0.01475736	     -0.02405478	      0.04957068	      0.01782644	      0.02113821
      0.77000000	      0.07145431	     -0.08235274	     -0.00670818	     -0.02087984	     -0.00979564	      0.00156535	      0.01070699	      0.02140649	     -0.12024157	      0.03300717	     -0.02303761	      0.02637820	     -0.02650297	      0.04899095	     -0.08288883	      0.00918374
      0.78000000	      0.02421733	     -0.11600330	     -0.02209257	      0.00590018	     -0.01726042	      0.00596201	      0.01125003	      0.01354040	     -0.21345793	      0.01594577	     -0.03741476	      0.03735718	     -0.00153644	      0.03836701	     -0.09657203	     -0.01085194
      0.79000000	     -0.06092134	     -0.08894835	     -0.01373294	      0.05331050	     -0.01491584	      0.00936410	      0.01658897	     -0.01357666	     -0.20747279	      0.00169787	     -0.03070864	      0.02883312	      0.03983506	      0.02239611	     -0.01850783	     -0.01370788
      0.80000000	      0.00903785	     -0.03656793	      0.01012313	      0.08567021	     -0.00612608	      0.00715515	      0.02507155	     -0.02747800	     -0.15397595	     -0.00244554	     -0.01368355	      0.00533545	      0.05806363	      0.00783480	      0.04883058	      0.01484824
      0.81000000	      0.76004249	     -0.00342412	      0.02895742	      0.06144508	      0.00030223	      0.00404730	      0.03075379	     -0.01554624	     -0.11469124	      0.00054202	     -0.00967862	     -0.00214984	      0.04276510	     -0.00164277	      0.05424666	      0.04680460
      0.82000000	      1.96855736	      0.02334603	      0.02344694	      0.00629932	      0.00489451	      0.01246464	      0.03162489	      0.01090725	     -0.09635780	      0.00430441	     -0.02054556	      0.00449848	      0.02380580	     -0.00149838	      0.00811086	      0.04765508
      0.83000000	      2.16122556	      0.07001720	      0.00745118	     -0.02638836	      0.00497124	      0.02792599	      0.03057075	      0.02980842	     -0.06311683	      0.00755301	     -0.02535076	      0.00355805	      0.01249380	      0.00417016	     -0.03354983	      0.02292741
      0.84000000	      0.33049768	      0.12263968	      0.00060973	     -0.03091641	     -0.00261853	      0.02952809	      0.02504085	      0.03291682	      0.02219592	      0.00988548	     -0.01461441	     -0.00292268	      0.00581986	      0.00543816	     -0.01875968	      0.00536574
      0.85000000	     -2.17900181	      0.15767731	     -0.00054789	     -0.02608489	     -0.00756140	      0.01916177	      0.01284136	      0.03302974	      0.10776893	      0.01001262	     -0.00021011	     -0.00723023	      0.00279245	      0.00229821	      0.02508928	      0.00972810
      0.86000000	     -2.86279678	      0.14885192	      0.00248352	     -0.03134893	     -0.00497359	      0.01846805	     -0.00061223	      0.03390355	      0.11457322	      0.01174489	      0.00754903	     -0.00842647	      0.00121609	     -0.00167249	      0.03415671	      0.02129433
      0.87000000	     -1.59465313	      0.10954188	      0.01473820	     -0.05183755	     -0.00286454	      0.02736094	     -0.01045307	      0.02946544	      0.07219217	      0.01523913	      0.00832428	     -0.00193385	     -0.00086815	     -0.00242079	     -0.00519560	      0.02487173
      0.88000000	     -0.20427677	      0.08535004	      0.02496422	     -0.04358137	      0.00057683	      0.02824537	     -0.01229158	      0.01797035	      0.04296302	      0.01504977	      0.00151778	      0.01498292	      0.00047167	      0.00279158	     -0.05099390	      0.01553690
      0.89000000	      0.39396393	      0.07361926	      0.00380312	      0.01640309	      0.00950119	      0.01827897	     -0.00533651	      0.00615479	      0.04244119	      0.00981248	     -0.00587333	      0.02853465	      0.00768710	      0.00758742	     -0.05345786	     -0.01072940
      0.90000000	      0.48956302	      0.03196028	     -0.02621032	      0.06898823	      0.01426489	      0.00849673	      0.00408154	     -0.00018308	      0.05439908	      0.00396129	     -0.00206683	      0.02826288	      0.01614998	      0.00460929	     -0.01311942	     -0.03720239
      0.91000000	      0.44667304	     -0.05770723	     -0.01874724	      0.07313295	      0.00738903	      0.00226268	      0.00954313	     -0.00559180	      0.05707341	     -0.00049767	      0.00984280	      0.01983021	      0.01975442	     -0.00618784	      0.02549292	     -0.04331317
      0.92000000	      0.37800622	     -0.12155587	      0.01017233	      0.05580664	     -0.00022113	     -0.00740679	      0.01060011	     -0.01218942	      0.04395452	     -0.00652969	      0.01806432	      0.00589935	      0.01659567	     -0.01881422	      0.03814755	     -0.03419477
      0.93000000	      0.30838668	     -0.08747160	      0.04816256	      0.04438780	      0.00041089	     -0.01914918	      0.00851113	     -0.01488645	      0.02690190	     -0.01344650	      0.02189193	     -0.00740708	      0.00958945	     -0.02205475	      0.03470919	     -0.01114825
      0.94000000	      0.24594805	     -0.01947859	      0.05359153	      0.04258504	      0.00177154	     -0.01995726	      0.00482875	     -0.01240769	      0.01952245	     -0.01599308	      0.02403098	     -0.00615873	      0.00165823	     -0.00925827	      0.02853754	      0.02007071
      0.95000000	      0.19129951	      0.00318401	      0.00509805	      0.04990852	      0.00003830	      0.00100528	      0.00212540	     -0.00840998	      0.01891939	     -0.01226807	      0.01853802	      0.00664120	     -0.00131241	      0.00922171	      0.01975203	      0.03224022
      0.96000000	      0.14772142	     -0.00520017	     -0.02635432	      0.05893157	      0.00088768	      0.02254692	      0.00103794	     -0.00420846	      0.01627883	     -0.00062013	      0.00620539	      0.01439265	      0.00324882	      0.02213345	     -0.00347567	      0.01979381
